<svg width="36" height="36" viewBox="0 0 36 36" fill="none" xmlns="http://www.w3.org/2000/svg">
<path d="M18 15C18.6894 15 19.3721 14.8642 20.0091 14.6004C20.646 14.3365 21.2248 13.9498 21.7123 13.4623C22.1998 12.9748 22.5865 12.396 22.8504 11.7591C23.1142 11.1221 23.25 10.4394 23.25 9.75C23.25 9.06056 23.1142 8.37787 22.8504 7.74091C22.5865 7.10395 22.1998 6.5252 21.7123 6.03769C21.2248 5.55018 20.646 5.16347 20.0091 4.89963C19.3721 4.6358 18.6894 4.5 18 4.5C16.6076 4.5 15.2723 5.05312 14.2877 6.03769C13.3031 7.02226 12.75 8.35761 12.75 9.75C12.75 11.1424 13.3031 12.4777 14.2877 13.4623C15.2723 14.4469 16.6076 15 18 15ZM4.5 30.6V31.5H31.5V30.6C31.5 27.24 31.5 25.56 30.846 24.276C30.2708 23.1471 29.3529 22.2292 28.224 21.654C26.94 21 25.26 21 21.9 21H14.1C10.74 21 9.06 21 7.776 21.654C6.64708 22.2292 5.72923 23.1471 5.154 24.276C4.5 25.56 4.5 27.24 4.5 30.6Z" fill="#085CA7" stroke="#085CA7" stroke-width="2" stroke-linecap="round" stroke-linejoin="round"/>
</svg>
